<svg xmlns="http://www.w3.org/2000/svg" viewBox="0 0 799 349" xmlns:xlink="http://www.w3.org/1999/xlink">
  <defs>
    <path id="a" d="M0 0h200v200H0z"/>
    <path id="b" d="M299 0h200v200H299z"/>
    <path id="c" d="M300 299h200v50H300z"/>
    <path id="d" d="M324 25h150v50H324z"/>
    <path id="e" d="M324 90h150v50H324z"/>
    <path id="f" d="M599 0h200v200H599z"/>
  </defs>
  <g fill="none" fill-rule="evenodd">
    <use fill="#5D54E1" fill-opacity=".15" xlink:href="#a"/>
    <path stroke="#5D54E1" d="M.5.5h199v199H.5z"/>
    <use fill="#5D54E1" fill-opacity=".15" xlink:href="#b"/>
    <path stroke="#5D54E1" d="M299.5.5h199v199h-199z"/>
    <use fill="#5D54E1" fill-opacity=".15" xlink:href="#c"/>
    <path stroke="#5D54E1" d="M300.5 299.5h199v49h-199z"/>
    <use fill="#5D54E1" fill-opacity=".15" xlink:href="#d"/>
    <path stroke="#5D54E1" d="M324.5 25.5h149v49h-149z"/>
    <use fill="#5D54E1" fill-opacity=".15" xlink:href="#e"/>
    <path stroke="#5D54E1" d="M324.5 90.5h149v49h-149z"/>
    <use fill="#5D54E1" fill-opacity=".15" xlink:href="#f"/>
    <path stroke="#5D54E1" d="M599.5.5h199v199h-199z"/>
    <path fill="#5C4EE5" d="M92.132 67.975l15.437 8.933V94.78l-15.44-8.938"/>
    <path fill="#4040B2" d="M109.26 76.908V94.78l15.44-8.938V67.975"/>
    <path fill="#5C4EE5" d="M75 58v17.867l15.436 8.938V66.933m1.696 38.737l15.437 8.937V96.735l-15.44-8.933"/>
    <path fill="#5D54E1" d="M28.94 177h3.024v-13.32h4.464v-2.664H24.476v2.664h4.464V177zm12.168-4.128c0 1.416.504 1.968 2.28 1.968 1.128 0 2.304-.168 3.576-.552l.456 2.208c-1.32.504-2.904.744-4.296.744-3.672 0-4.944-1.704-4.944-4.512v-3.096c0-2.472 1.104-4.56 4.848-4.56 3.744 0 4.584 2.184 4.584 4.704v2.496h-6.504v.6zm0-3.528v.576h3.72v-.576c0-1.104-.336-1.872-1.776-1.872s-1.944.768-1.944 1.872zm14.88-4.272c-1.032.288-2.424 1.104-3.072 1.536l-.192-1.296h-2.472V177h2.928v-7.536c1.056-.672 1.968-1.2 3.096-1.704l-.288-2.688zm7.992 0c-1.032.288-2.424 1.104-3.072 1.536l-.192-1.296h-2.472V177h2.928v-7.536c1.056-.672 1.968-1.2 3.096-1.704l-.288-2.688zm10.92 4.224V177h-2.4l-.216-.792c-1.056.696-2.304 1.032-3.48 1.032-2.136 0-3.048-1.464-3.048-3.48 0-2.376 1.032-3.288 3.408-3.288h2.808v-1.224c0-1.296-.36-1.752-2.232-1.752-1.056 0-2.208.144-3.24.36l-.36-2.232c1.104-.336 2.712-.552 4.008-.552 3.672 0 4.752 1.296 4.752 4.224zm-2.928 5.016v-1.728h-2.16c-.96 0-1.224.264-1.224 1.152 0 .816.264 1.176 1.176 1.176.864 0 1.656-.288 2.208-.6zm13.08-13.92c-.768-.216-1.608-.336-2.52-.336-2.592 0-3.72 1.2-3.72 3.624v1.632H76.94v2.328h1.872V177h2.928v-9.36h2.808l.168-2.328H81.74v-1.464c0-.888.168-1.392 1.32-1.392.48 0 1.128.072 1.68.192l.312-2.256zm11.328 12.24c0 2.4-1.08 4.608-5.088 4.608s-5.088-2.208-5.088-4.608v-2.952c0-2.4 1.08-4.608 5.088-4.608s5.088 2.208 5.088 4.608v2.952zm-2.928-3.048c0-1.32-.6-2.016-2.16-2.016s-2.16.696-2.16 2.016v3.144c0 1.32.6 2.016 2.16 2.016s2.16-.696 2.16-2.016v-3.144zm11.496-4.512c-1.032.288-2.424 1.104-3.072 1.536l-.192-1.296h-2.472V177h2.928v-7.536c1.056-.672 1.968-1.2 3.096-1.704l-.288-2.688zM117.044 177v-8.112c.912-.528 2.328-.984 3.048-.984.672 0 .936.312.936.936V177h2.928v-8.472c0-2.088-.696-3.456-2.64-3.456-1.416 0-3.288.528-4.704 1.248-.384-.792-1.08-1.248-2.208-1.248-1.368 0-3.216.504-4.68 1.224l-.288-.984h-2.232V177h2.928v-8.112c1.056-.552 2.328-.984 3.048-.984.672 0 .936.312.936.936V177h2.928zm14.952-4.392c0 2.928 1.704 4.632 5.688 4.632 1.488 0 3.024-.192 4.344-.528l-.336-2.616c-1.296.24-2.808.408-3.912.408-2.088 0-2.76-.72-2.76-2.424v-6.144c0-1.704.672-2.424 2.76-2.424 1.104 0 2.616.168 3.912.408l.336-2.616c-1.32-.336-2.856-.528-4.344-.528-3.984 0-5.688 1.704-5.688 4.632v7.2zm22.44.024c0 2.4-1.08 4.608-5.088 4.608s-5.088-2.208-5.088-4.608v-2.952c0-2.4 1.08-4.608 5.088-4.608s5.088 2.208 5.088 4.608v2.952zm-2.928-3.048c0-1.32-.6-2.016-2.16-2.016s-2.16.696-2.16 2.016v3.144c0 1.32.6 2.016 2.16 2.016s2.16-.696 2.16-2.016v-3.144zm11.496-4.512c-1.032.288-2.424 1.104-3.072 1.536l-.192-1.296h-2.472V177h2.928v-7.536c1.056-.672 1.968-1.2 3.096-1.704l-.288-2.688zm4.656 7.8c0 1.416.504 1.968 2.28 1.968 1.128 0 2.304-.168 3.576-.552l.456 2.208c-1.32.504-2.904.744-4.296.744-3.672 0-4.944-1.704-4.944-4.512v-3.096c0-2.472 1.104-4.56 4.848-4.56 3.744 0 4.584 2.184 4.584 4.704v2.496h-6.504v.6zm0-3.528v.576h3.72v-.576c0-1.104-.336-1.872-1.776-1.872s-1.944.768-1.944 1.872zM362.288 177v-15.984h6.24c3.696 0 5.064 1.512 5.064 4.32v2.184c0 2.784-1.488 4.296-5.208 4.296h-3.072V177h-3.024zm8.28-11.424c0-1.32-.552-1.896-2.208-1.896h-3.048v5.472h3.048c1.704 0 2.208-.624 2.208-1.944v-1.632zM378.92 177v-16.872l-2.928.408V177h2.928zm3.24-11.688v8.472c0 2.088.696 3.456 2.64 3.456 1.368 0 3.216-.504 4.68-1.224l.288.984H392v-11.688h-2.928v8.112c-1.056.552-2.328.984-3.048.984-.672 0-.936-.312-.936-.936v-8.16h-2.928zm17.184 8.568c-.24 0-.456 0-.672-.024-.384.24-.696.576-.696.936 0 .312.192.456.648.504 1.296.144 2.016.216 3.384.36 1.896.216 2.496 1.152 2.496 2.832 0 2.496-.912 3.48-5.28 3.48-1.344 0-3.192-.192-4.512-.6l.36-2.184c1.248.312 2.568.504 3.936.504 2.328 0 2.784-.168 2.784-.936 0-.72-.216-.84-1.104-.936-1.344-.144-1.896-.216-3.384-.384-1.656-.192-2.304-.744-2.304-2.232 0-.96.648-1.584 1.224-1.992-1.08-.648-1.584-1.728-1.584-3.144v-1.104c.048-2.424 1.32-3.888 4.704-3.888.792 0 1.416.096 1.992.24h3.6v1.464c-.408.12-.888.24-1.296.36.264.504.408 1.152.408 1.824v1.104c0 2.376-1.44 3.816-4.704 3.816zm1.968-4.824c0-1.104-.504-1.632-1.968-1.632-1.44 0-1.944.528-1.944 1.632v.888c0 1.152.576 1.584 1.944 1.584 1.392 0 1.968-.456 1.968-1.584v-.888zm8.712 7.944v-11.688h-2.928V177h2.928zm0-13.344v-3.384h-2.928v3.384h2.928zm13.2 13.344v-8.472c0-2.088-.696-3.456-2.64-3.456-1.368 0-3.216.504-4.68 1.224l-.288-.984h-2.232V177h2.928v-8.112c1.056-.552 2.328-.984 3.048-.984.672 0 .936.312.936.936V177h2.928zm11.088-3.408c0-2.4-.312-2.832-3.576-3.696-1.584-.408-1.656-.48-1.656-1.416 0-.72.216-1.008 1.488-1.008.912 0 2.328.168 3.216.336l.288-2.328c-1.008-.264-2.424-.408-3.504-.408-3.336 0-4.368 1.032-4.368 3.384 0 2.256.336 2.976 3.192 3.672 1.896.456 2.04.816 2.04 1.536 0 .888-.192 1.176-1.488 1.176-1.2 0-2.496-.216-3.48-.504l-.408 2.232c1.08.384 2.784.672 4.032.672 3.528 0 4.224-1.392 4.224-3.648zm199.912-12.576v11.112c0 1.56-.744 2.448-2.88 2.448s-2.88-.888-2.88-2.448v-11.112h-3.024v11.352c0 2.52 1.416 4.872 5.904 4.872 4.488 0 5.904-2.352 5.904-4.872v-11.352h-3.024zm16.296 8.112v3.984c0 2.592-1.152 4.128-3.864 4.128-1.032 0-2.208-.144-3.12-.336v4.824l-2.928.408v-16.824h2.328l.288.984c1.032-.744 2.232-1.224 3.696-1.224 2.352 0 3.6 1.392 3.6 4.056zm-6.984-.504v5.808c.768.168 1.752.312 2.592.312 1.056 0 1.464-.504 1.464-1.56v-4.128c0-.96-.36-1.488-1.44-1.488-.96 0-1.992.48-2.616 1.056zm17.712 4.968c0-2.4-.312-2.832-3.576-3.696-1.584-.408-1.656-.48-1.656-1.416 0-.72.216-1.008 1.488-1.008.912 0 2.328.168 3.216.336l.288-2.328c-1.008-.264-2.424-.408-3.504-.408-3.336 0-4.368 1.032-4.368 3.384 0 2.256.336 2.976 3.192 3.672 1.896.456 2.04.816 2.04 1.536 0 .888-.192 1.176-1.488 1.176-1.2 0-2.496-.216-3.48-.504l-.408 2.232c1.08.384 2.784.672 4.032.672 3.528 0 4.224-1.392 4.224-3.648zm8.76.96c-.504.144-1.032.24-1.464.24-.768 0-1.056-.408-1.056-1.032v-6.12h2.808l.192-2.328h-3V162l-2.928.408v2.904h-1.752v2.328h1.752v6.504c0 2.088 1.08 3.096 3.216 3.096.744 0 1.944-.192 2.568-.456l-.336-2.232zm8.376-9.48c-1.032.288-2.424 1.104-3.072 1.536l-.192-1.296h-2.472V177h2.928v-7.536c1.056-.672 1.968-1.2 3.096-1.704l-.288-2.688zm4.656 7.8c0 1.416.504 1.968 2.28 1.968 1.128 0 2.304-.168 3.576-.552l.456 2.208c-1.32.504-2.904.744-4.296.744-3.672 0-4.944-1.704-4.944-4.512v-3.096c0-2.472 1.104-4.56 4.848-4.56 3.744 0 4.584 2.184 4.584 4.704v2.496h-6.504v.6zm0-3.528v.576h3.72v-.576c0-1.104-.336-1.872-1.776-1.872s-1.944.768-1.944 1.872zm17.808-.048V177h-2.4l-.216-.792c-1.056.696-2.304 1.032-3.48 1.032-2.136 0-3.048-1.464-3.048-3.48 0-2.376 1.032-3.288 3.408-3.288h2.808v-1.224c0-1.296-.36-1.752-2.232-1.752-1.056 0-2.208.144-3.24.36l-.36-2.232c1.104-.336 2.712-.552 4.008-.552 3.672 0 4.752 1.296 4.752 4.224zm-2.928 5.016v-1.728h-2.16c-.96 0-1.224.264-1.224 1.152 0 .816.264 1.176 1.176 1.176.864 0 1.656-.288 2.208-.6zM713.808 177v-8.112c.912-.528 2.328-.984 3.048-.984.672 0 .936.312.936.936V177h2.928v-8.472c0-2.088-.696-3.456-2.64-3.456-1.416 0-3.288.528-4.704 1.248-.384-.792-1.08-1.248-2.208-1.248-1.368 0-3.216.504-4.68 1.224l-.288-.984h-2.232V177h2.928v-8.112c1.056-.552 2.328-.984 3.048-.984.672 0 .936.312.936.936V177h2.928zm25.248 0l-1.032-3.312h-5.928L731.088 177h-3.168l5.04-15.984h4.224l5.04 15.984h-3.168zm-3.984-13.488l-2.232 7.56h4.416l-2.184-7.56zM744.624 177v-15.984h6.24c3.696 0 5.064 1.512 5.064 4.32v2.184c0 2.784-1.488 4.296-5.208 4.296h-3.072V177h-3.024zm8.28-11.424c0-1.32-.552-1.896-2.208-1.896h-3.048v5.472h3.048c1.704 0 2.208-.624 2.208-1.944v-1.632zm8.688-4.56h-3.024V177h3.024v-15.984zm11.448 12.576c0-2.4-.312-2.832-3.576-3.696-1.584-.408-1.656-.48-1.656-1.416 0-.72.216-1.008 1.488-1.008.912 0 2.328.168 3.216.336l.288-2.328c-1.008-.264-2.424-.408-3.504-.408-3.336 0-4.368 1.032-4.368 3.384 0 2.256.336 2.976 3.192 3.672 1.896.456 2.04.816 2.04 1.536 0 .888-.192 1.176-1.488 1.176-1.2 0-2.496-.216-3.48-.504l-.408 2.232c1.08.384 2.784.672 4.032.672 3.528 0 4.224-1.392 4.224-3.648zM366.686 56V44.012h4.338c2.574 0 3.474 1.116 3.474 2.952v1.782c0 1.854-.9 2.97-3.474 2.97h-2.79V56h-1.548zm6.264-9.018c0-1.188-.504-1.584-1.98-1.584h-2.736v4.932h2.736c1.476 0 1.98-.414 1.98-1.584v-1.764zm7.488.072c-.864.36-1.764.9-2.412 1.404l-.09-1.224h-1.314V56h1.512v-6.048c.72-.504 1.674-1.116 2.502-1.512l-.198-1.386zm8.406 5.832c0 1.836-1.008 3.294-3.564 3.294s-3.564-1.458-3.564-3.294v-2.538c0-1.836 1.008-3.294 3.564-3.294s3.564 1.458 3.564 3.294v2.538zm-1.512-2.592c0-1.278-.684-1.926-2.052-1.926-1.368 0-2.052.648-2.052 1.926v2.646c0 1.278.684 1.926 2.052 1.926 1.368 0 2.052-.648 2.052-1.926v-2.646zm6.552 4.464l-2.412-7.524h-1.494L392.876 56h2.016l2.898-8.766h-1.494l-2.412 7.524zM400.886 56v-8.766h-1.512V56h1.512zm0-10.17v-2.178h-1.512v2.178h1.512zm2.556 7.668v-3.582c0-1.746.792-2.862 2.844-2.862.774 0 1.8.126 2.502.27v-3.672l1.512-.216V56h-1.278l-.126-.792c-.72.576-1.746.972-2.898.972-1.728 0-2.556-.918-2.556-2.682zm5.346.306v-5.148c-.81-.162-1.8-.27-2.412-.27-1.008 0-1.422.468-1.422 1.53v3.582c0 .9.288 1.35 1.35 1.35.864 0 1.836-.468 2.484-1.044zm5.454-.864c0 1.386.378 1.944 2.088 1.944.864 0 1.818-.162 2.772-.414l.198 1.206c-.828.306-1.998.504-3.096.504-2.592 0-3.474-1.242-3.474-3.222V50.33c0-1.818.828-3.276 3.438-3.276 2.592 0 3.294 1.494 3.294 3.312v1.836h-5.22v.738zm0-2.718v.72h3.762v-.72c0-1.224-.414-1.908-1.836-1.908-1.422 0-1.926.684-1.926 1.908zm11.412-3.168c-.864.36-1.764.9-2.412 1.404l-.09-1.224h-1.314V56h1.512v-6.048c.72-.504 1.674-1.116 2.502-1.512l-.198-1.386zm7.182 6.588c0-1.746-.198-2.052-2.718-2.682-1.476-.36-1.494-.54-1.494-1.512 0-.792.18-1.098 1.476-1.098.72 0 1.692.108 2.43.252l.108-1.242c-.72-.198-1.638-.306-2.484-.306-2.304 0-3.024.738-3.024 2.358 0 1.818.198 2.268 2.376 2.808 1.764.432 1.836.54 1.836 1.476 0 .936-.234 1.188-1.62 1.188-.756 0-1.746-.144-2.502-.36l-.198 1.188c.702.27 1.89.468 2.79.468 2.502 0 3.024-.828 3.024-2.538zM245.066 93l-2.325-3.374h-2.28V93h-1.2v-9.324h3.56c2.01 0 2.71.868 2.71 2.296v1.344c0 1.106-.4 1.862-1.48 2.17l2.4 3.514h-1.38zm-.757-7.014c0-.924-.4-1.232-1.54-1.232h-2.31v3.808h2.31c1.14 0 1.54-.322 1.54-1.232v-1.344zM248.1 93v-9.324h3.374c2.002 0 2.702.868 2.702 2.296v1.386c0 1.442-.7 2.31-2.703 2.31h-2.17V93H248.1zm4.872-7.014c0-.924-.392-1.232-1.54-1.232h-2.128v3.836h2.128c1.148 0 1.54-.322 1.54-1.232v-1.372zm3.92.364c0-1.302.504-1.722 2.03-1.722.56 0 1.47.07 2.184.196l.125-1.036c-.67-.154-1.65-.252-2.35-.252-2.28 0-3.19.98-3.19 2.744v4.116c0 1.764.91 2.744 3.19 2.744.7 0 1.68-.098 2.36-.252l-.12-1.036c-.71.126-1.62.196-2.18.196-1.52 0-2.03-.42-2.03-1.722V86.35zm99 34.65v-11.988h4.34c2.573 0 3.473 1.116 3.473 2.952v1.782c0 1.854-.9 2.97-3.474 2.97h-2.79V121h-1.54zm6.265-9.018c0-1.188-.506-1.584-1.98-1.584h-2.738v4.932h2.73c1.47 0 1.98-.414 1.98-1.584v-1.764zm7.486.072c-.864.36-1.764.9-2.412 1.404l-.09-1.224h-1.31V121h1.52v-6.048c.72-.504 1.68-1.116 2.51-1.512l-.2-1.386zm8.406 5.832c0 1.836-1.01 3.294-3.57 3.294-2.56 0-3.57-1.458-3.57-3.294v-2.538c0-1.836 1-3.294 3.56-3.294s3.56 1.458 3.56 3.294v2.538zm-1.52-2.592c0-1.278-.69-1.926-2.05-1.926-1.37 0-2.06.648-2.06 1.926v2.646c0 1.278.68 1.926 2.05 1.926 1.36 0 2.05-.648 2.05-1.926v-2.646zm6.55 4.464l-2.42-7.524h-1.49l2.9 8.766h2.01l2.9-8.766h-1.49l-2.41 7.524zm7 1.242v-8.766h-1.51V121h1.51zm0-10.17v-2.178h-1.51v2.178h1.51zm8.33 7.812c0-1.746-.2-2.052-2.72-2.682-1.48-.36-1.5-.54-1.5-1.512 0-.792.18-1.098 1.47-1.098.72 0 1.69.108 2.43.252l.107-1.242c-.72-.198-1.635-.306-2.48-.306-2.305 0-3.025.738-3.025 2.358 0 1.818.194 2.268 2.372 2.808 1.76.432 1.832.54 1.832 1.476 0 .936-.237 1.188-1.62 1.188-.76 0-1.75-.144-2.505-.36l-.194 1.188c.7.27 1.89.468 2.79.468 2.5 0 3.025-.828 3.025-2.538zm3.96 2.358v-8.766h-1.52V121h1.51zm0-10.17v-2.178h-1.52v2.178h1.51zm9.55 7.056c0 1.836-1.01 3.294-3.57 3.294s-3.565-1.458-3.565-3.294v-2.538c0-1.836 1.005-3.294 3.56-3.294s3.566 1.458 3.566 3.294v2.538zm-1.51-2.592c0-1.278-.69-1.926-2.06-1.926s-2.053.648-2.053 1.926v2.646c0 1.278.687 1.926 2.055 1.926 1.364 0 2.05-.648 2.05-1.926v-2.646zM421.18 121v-6.714c0-1.35-.503-2.232-1.907-2.232-1.044 0-2.556.468-3.528.936l-.144-.756h-1.22V121h1.51v-6.624c.94-.486 2.29-.882 2.94-.882.56 0 .85.234.85.81V121h1.51zm3.853-3.06c0 1.386.378 1.944 2.088 1.944.87 0 1.82-.162 2.78-.414l.2 1.206c-.82.306-1.99.504-3.09.504-2.59 0-3.47-1.242-3.47-3.222v-2.628c0-1.818.83-3.276 3.44-3.276 2.59 0 3.3 1.494 3.3 3.312v1.836h-5.22v.738zm0-2.718v.72h3.762v-.72c0-1.224-.414-1.908-1.836-1.908-1.43 0-1.93.684-1.93 1.908zm11.412-3.168c-.864.36-1.764.9-2.412 1.404l-.09-1.224h-1.314V121h1.51v-6.048c.72-.504 1.67-1.116 2.5-1.512l-.2-1.386zm7.182 6.588c0-1.746-.198-2.052-2.718-2.682-1.48-.36-1.5-.54-1.5-1.512 0-.792.18-1.098 1.47-1.098.72 0 1.69.108 2.43.252l.11-1.242c-.72-.198-1.64-.306-2.49-.306-2.31 0-3.03.738-3.03 2.358 0 1.818.2 2.268 2.38 2.808 1.76.432 1.83.54 1.83 1.476 0 .936-.23 1.188-1.62 1.188-.757 0-1.747-.144-2.5-.36l-.2 1.188c.7.27 1.89.468 2.79.468 2.5 0 3.023-.828 3.023-2.538zm-92.66 208.064c0 2.196 1.28 3.474 4.267 3.474 1.116 0 2.268-.144 3.258-.396l-.252-1.962c-.972.18-2.106.306-2.934.306-1.566 0-2.07-.54-2.07-1.818v-4.608c0-1.278.504-1.818 2.07-1.818.828 0 1.962.126 2.934.306l.252-1.962c-.99-.252-2.142-.396-3.258-.396-2.988 0-4.266 1.278-4.266 3.474v5.4zm11.79 3.294v-12.654l-2.195.306V330h2.196zm4.717 0v-8.766h-2.196V330h2.196zm0-10.008v-2.538h-2.196v2.538h2.196zm4.32 6.912c0 1.062.378 1.476 1.71 1.476.846 0 1.728-.126 2.682-.414l.342 1.656c-.99.378-2.178.558-3.222.558-2.754 0-3.708-1.278-3.708-3.384v-2.322c0-1.854.828-3.42 3.636-3.42 2.808 0 3.438 1.638 3.438 3.528v1.872h-4.878v.45zm0-2.646v.432h2.79v-.432c0-.828-.252-1.404-1.332-1.404s-1.458.576-1.458 1.404zM386.032 330v-6.354c0-1.566-.522-2.592-1.98-2.592-1.026 0-2.412.378-3.51.918l-.216-.738h-1.674V330h2.196v-6.084c.792-.414 1.746-.738 2.286-.738.504 0 .702.234.702.702V330h2.196zm6.84-1.836c-.378.108-.774.18-1.098.18-.576 0-.792-.306-.792-.774v-4.59h2.106l.144-1.746h-2.25v-2.484l-2.196.306v2.178h-1.314v1.746h1.314v4.878c0 1.566.81 2.322 2.412 2.322.558 0 1.458-.144 1.926-.342l-.252-1.674zm8.118-10.152h-2.268V330h7.2v-1.998h-4.932v-9.99zM409.918 330v-8.766h-2.196V330h2.196zm0-10.008v-2.538h-2.196v2.538h2.196zm9.954 4.068v2.574c0 2.124-.648 3.546-4.032 3.546-.882 0-2.304-.09-3.402-.306v-12.222l2.196-.306v4.23c.648-.27 1.638-.522 2.592-.522 1.89 0 2.646 1.152 2.646 3.006zm-5.238-.63v4.806c.396.054.846.072 1.314.072 1.44 0 1.728-.576 1.728-1.602v-2.7c0-.702-.306-1.08-1.116-1.08-.612 0-1.386.252-1.926.504zm11.61-2.376c-.774.216-1.818.828-2.304 1.152l-.144-.972h-1.854V330h2.196v-5.652c.792-.504 1.476-.9 2.322-1.278l-.216-2.016zm8.19 3.168V330h-1.8l-.162-.594c-.792.522-1.728.774-2.61.774-1.602 0-2.286-1.098-2.286-2.61 0-1.782.774-2.466 2.556-2.466h2.106v-.918c0-.972-.27-1.314-1.674-1.314-.792 0-1.656.108-2.43.27l-.27-1.674c.828-.252 2.034-.414 3.006-.414 2.754 0 3.564.972 3.564 3.168zm-2.196 3.762v-1.296h-1.62c-.72 0-.918.198-.918.864 0 .612.198.882.882.882.648 0 1.242-.216 1.656-.45zm8.838-6.93c-.774.216-1.818.828-2.304 1.152l-.144-.972h-1.854V330h2.196v-5.652c.792-.504 1.476-.9 2.322-1.278l-.216-2.016zm9.036.18h-2.25l-2.016 6.66-1.998-6.66h-2.25L444.37 330h.774l-1.098 3.546h2.088l1.17-3.546 2.808-8.766z"/>
    <path fill="#5D54E1" fill-rule="nonzero" d="M734.9 90.6c.1-.8.1-1.4.1-2.2 0-13.8-11.2-24.9-25-24.9-11.5 0-21.5 7.9-24.3 19-2.4-.6-4.8-.9-7.2-.9-14.9 0-27.2 12.1-27.5 27l1-.2v-.4l1 .5v-.5h64.8l.1-.6c.1-.9.2-1.5.2-2.2 0-9.5-7.8-17.2-17.3-17.2-6.9 0-13.2 4.2-15.9 10.5l2.1.9c2.4-5.5 7.8-9.1 13.8-9.1 8.3 0 15 6.5 15 14.8 0 .4 0-.1-.1.9h-62.6c1.3-12 12.2-22.7 25.4-22.7 2.6 0 5.2.5 7.7 1.3l1.1.4.2-1.1c2.1-10.7 11.6-18.4 22.5-18.4 12.7 0 23 10.3 23 23 0 .9-.1 1.9-.2 2.9l-.1.8h.8c6.2 2.1 10.6 7.8 11.4 13.8H732v2h15c0-7-4.8-14.6-12.1-17.4z"/>
    <path stroke="#5D54E1" d="M227.398 100.5h44.12" stroke-linecap="square"/>
    <path fill="#5D54E1" d="M279 100.5l-7 3.5v-7m-52 3.5l7 3.5v-7"/>
    <path stroke="#5D54E1" d="M527.398 324.5H699.5m.898.007v-93.044" stroke-linecap="square"/>
    <path fill="#5D54E1" d="M700.5 224l3.5 7h-7m-177 93.5l7 3.5v-7m-117.724-73.65c0-1.26.462-1.722 2.002-1.722.77 0 1.61.084 2.506.238l.14-1.036c-.868-.196-1.792-.294-2.59-.294-2.324 0-3.262.868-3.262 2.758v4.102c0 1.722.728 2.744 3.108 2.744.966 0 2.044-.14 2.954-.406v-4.018h-1.162v3.164c-.644.126-1.26.168-1.75.168-1.596 0-1.946-.532-1.946-1.722v-3.976zm12.222 4.228c0 1.428-.784 2.562-2.772 2.562-1.988 0-2.772-1.134-2.772-2.562v-1.974c0-1.428.784-2.562 2.772-2.562 1.988 0 2.772 1.134 2.772 2.562v1.974zm-1.176-2.016c0-.994-.532-1.498-1.596-1.498s-1.596.504-1.596 1.498v2.058c0 .994.532 1.498 1.596 1.498s1.596-.504 1.596-1.498v-2.058zm4.242 4.438v-9.772l-1.176.168V254h1.176zm7.07-4.746V254h-.994l-.07-.504c-.602.42-1.386.644-2.212.644-1.274 0-1.806-.756-1.806-1.96 0-1.414.714-1.918 2.086-1.918h1.82v-1.064c0-.854-.378-1.148-1.484-1.148-.658 0-1.512.112-2.044.224l-.126-.938c.644-.168 1.512-.294 2.24-.294 1.946 0 2.59.756 2.59 2.212zm-1.176 3.318v-1.33h-1.736c-.728 0-.994.224-.994.91 0 .7.126.98.966.98.588 0 1.246-.224 1.764-.56zm8.54 1.428v-5.222c0-1.05-.392-1.736-1.484-1.736-.812 0-1.988.364-2.744.728l-.112-.588h-.952V254h1.176v-5.152c.728-.378 1.778-.686 2.282-.686.434 0 .658.182.658.63V254h1.176zm7.448-6.818v.686l-.812.154c.252.35.364.826.378 1.358v.308c0 1.47-.896 2.324-2.674 2.324-.252 0-.49-.014-.7-.042-.238.196-.49.434-.49.728 0 .266.14.364.448.392.714.07 1.078.112 1.932.196 1.232.126 1.708.602 1.708 1.638 0 1.484-.518 1.974-2.982 1.974-.63 0-1.708-.112-2.478-.322l.168-.924c.714.168 1.596.28 2.282.28 1.736 0 1.904-.238 1.904-.952 0-.574-.21-.672-1.008-.742-.756-.07-1.008-.098-1.806-.168-1.008-.084-1.33-.616-1.33-1.246 0-.504.28-.924.644-1.204-.644-.364-.952-1.036-.952-1.932v-.308c0-1.484.714-2.338 2.66-2.338.35 0 .826.042 1.148.14h1.96zm-1.554 2.212c0-.994-.42-1.386-1.554-1.386-1.134 0-1.554.378-1.554 1.386v.294c0 1.036.434 1.358 1.554 1.358s1.554-.462 1.554-1.358v-.294zM602.998 318v-9.324h-1.204v4.018h-4.13v-4.018h-1.204V318h1.204v-4.228h4.13V318h1.204zm4.256 0h1.204v-8.246h2.786v-1.078h-6.776v1.078h2.786V318zm7.336 0h1.204v-8.246h2.786v-1.078h-6.776v1.078h2.786V318zm5.46 0v-9.324h3.374c2.002 0 2.702.868 2.702 2.296v1.386c0 1.442-.7 2.31-2.702 2.31h-2.17V318h-1.204zm4.872-7.014c0-.924-.392-1.232-1.54-1.232h-2.128v3.836h2.128c1.148 0 1.54-.322 1.54-1.232v-1.372zm4.872-3.654c-1.386 1.862-2.156 3.948-2.156 6.412s.77 4.55 2.156 6.412l.84-.56c-1.33-2.072-1.82-3.808-1.82-5.852 0-2.044.49-3.78 1.82-5.852l-.84-.56zm7.77 8.26c0-1.82-.126-2.184-2.604-2.8-1.848-.462-1.848-.518-1.848-1.806 0-1.078.28-1.386 1.806-1.386.77 0 1.652.098 2.394.266l.098-1.022c-.742-.196-1.708-.308-2.52-.308-2.31 0-2.982.784-2.982 2.408 0 1.932.266 2.366 2.52 2.87 1.918.434 1.932.546 1.932 1.806 0 1.064-.308 1.456-1.806 1.456-.854 0-1.75-.14-2.604-.406l-.196.98c.798.322 1.876.49 2.772.49 2.562 0 3.038-.924 3.038-2.548zm1.19-7.7c1.33 2.072 1.82 3.808 1.82 5.852 0 2.044-.49 3.78-1.82 5.852l.84.56c1.386-1.862 2.156-3.948 2.156-6.412s-.77-4.55-2.156-6.412l-.84.56z"/>
    <path stroke="#5D54E1" d="M399.5 228.398v44.12" stroke-linecap="square"/>
    <path fill="#5D54E1" d="M399.5 280l-3.5-7h7m-3.5-52l-3.5 7h7"/>
  </g>
</svg>
